<svg xmlns="http://www.w3.org/2000/svg" viewBox="0 0 500 219" fill="#ffffff"><path d="M131.59,135.85h24.15V170H131.59v46.11H89.29V170H1.9L0,143.32,88.85,2.93h42.74Zm-89.44,0H89.29V60.61L86.5,65.44ZM322,127.94q0,44.22-18.29,67.64T250.15,219q-34.85,0-53.28-23T178,130.14V90.91q0-44.65,18.44-67.78T249.85,0q34.85,0,53.28,23T322,88.71Zm-42.3-43q0-26.51-7.32-38.5-7.17-12.15-22.54-12.15-14.92,0-22.1,11.56-7,11.42-7.46,35.87v51.82q0,26.06,7,38.79,7.17,12.58,22.84,12.59,15.51,0,22.39-12.15t7.17-37.18Zm196.14,50.94H500V170H475.85v46.11h-42.3V170H346.17l-1.91-26.64L433.11,2.93h42.74Zm-89.43,0h47.13V60.61l-2.78,4.83Z"/></svg>
