<svg xmlns="http://www.w3.org/2000/svg" viewBox="0 0 85 31"><path d="M46.37,10.61a9,9,0,0,0-4.17-.72H37.33V21.26h4.89a9.08,9.08,0,0,0,4.21-.69A2.71,2.71,0,0,0,47.67,18V13.34A2.87,2.87,0,0,0,46.37,10.61ZM44.88,18a1.05,1.05,0,0,1-.6,1.13,7,7,0,0,1-2.19.23h-2V11.84h2.1a5.13,5.13,0,0,1,2,.32,1.13,1.13,0,0,1,.67,1.13Zm13,1.79a3.25,3.25,0,0,0,.26-1.41v-2.5a3.63,3.63,0,0,0-.26-1.5,2.49,2.49,0,0,0-.67-1,2.79,2.79,0,0,0-1-.52,6.23,6.23,0,0,0-1.14-.23H52.6a6.29,6.29,0,0,0-1.13.23,2.91,2.91,0,0,0-1,.52,2.6,2.6,0,0,0-.67,1,3.8,3.8,0,0,0-.27,1.5v2.5a3.4,3.4,0,0,0,.26,1.41,2.31,2.31,0,0,0,1.66,1.41,6.27,6.27,0,0,0,1.13.22h2.52a6.21,6.21,0,0,0,1.14-.22,2.59,2.59,0,0,0,1-.5A2.45,2.45,0,0,0,57.89,19.76Zm-2.27-1.13a1.11,1.11,0,0,1-.34.93,4,4,0,0,1-2.84,0,1.14,1.14,0,0,1-.34-.93V15.44a1.25,1.25,0,0,1,.35-1,3.63,3.63,0,0,1,2.82,0,1.18,1.18,0,0,1,.35,1Zm12-5.23a2.79,2.79,0,0,0-1-.52,5.47,5.47,0,0,0-1.14-.22H63a5.51,5.51,0,0,0-1.13.22,2.79,2.79,0,0,0-1,.52,2.39,2.39,0,0,0-.67,1,3.67,3.67,0,0,0-.28,1.5v2.5a3.34,3.34,0,0,0,.24,1.4,2.48,2.48,0,0,0,.66.91,2.59,2.59,0,0,0,1,.5,6.21,6.21,0,0,0,1.14.22h2.51a6.21,6.21,0,0,0,1.14-.22,2.31,2.31,0,0,0,1.66-1.41,3.38,3.38,0,0,0,.27-1.41v-2.5a3.8,3.8,0,0,0-.27-1.5A2.63,2.63,0,0,0,67.65,13.4ZM66,18.66a1.13,1.13,0,0,1-.34.92,4,4,0,0,1-2.84,0,1.1,1.1,0,0,1-.34-.92V15.44a1.18,1.18,0,0,1,.35-1,3.63,3.63,0,0,1,2.82,0,1.21,1.21,0,0,1,.35,1Zm7.76-5.53A1.53,1.53,0,0,0,73,14.26V12.78H70.6v8.47h2.58V16.16A1.19,1.19,0,0,1,73.71,15a3.14,3.14,0,0,1,1.59-.33h.89v-2.1h-.92A2.52,2.52,0,0,0,73.78,13.13Zm8,2.79H80.67a1.08,1.08,0,0,1-.68-.17.47.47,0,0,1-.21-.39v-.45a.57.57,0,0,1,.28-.57,3.48,3.48,0,0,1,1.36-.15c.24,0,1.27.07,3.1.21V12.77c-1.46-.11-2.47-.16-3-.16a9,9,0,0,0-3.13.44,1.59,1.59,0,0,0-1.17,1.61v1a1.77,1.77,0,0,0,.75,1.57,3.56,3.56,0,0,0,2.09.54h1.13a1.63,1.63,0,0,1,1,.2.82.82,0,0,1,.23.61v.55a.58.58,0,0,1-.42.59,3.69,3.69,0,0,1-1.14.15,27.61,27.61,0,0,1-3.4-.37v1.7a25.68,25.68,0,0,0,3.4.26h1.26a7.5,7.5,0,0,0,1.14-.18,2.78,2.78,0,0,0,.94-.4,2,2,0,0,0,.6-.71A2.33,2.33,0,0,0,85,19.08V18C85,16.61,83.9,15.92,81.81,15.92ZM39.58,24.66c-1.32,0-2,.44-2,1.34v2.25c0,.85.65,1.28,2,1.28a3.86,3.86,0,0,0,.68,0,3.84,3.84,0,0,0,.6-.2,1,1,0,0,0,.5-.4,1.15,1.15,0,0,0,.19-.65V25.94C41.57,25.09,40.91,24.66,39.58,24.66Zm1.28,3.54c0,.54-.43.81-1.3.81s-1.3-.27-1.27-.81V25.94a.78.78,0,0,1,.11-.44.68.68,0,0,1,.31-.27,1.39,1.39,0,0,1,.41-.12h.48c.84,0,1.26.28,1.26.83Zm5,.36a.38.38,0,0,1-.22.37,1.77,1.77,0,0,1-.76.1,1.41,1.41,0,0,1-.41,0,.47.47,0,0,1-.24-.13.76.76,0,0,1-.09-.18.81.81,0,0,1,0-.22V25.94h-.66V28.5a1.05,1.05,0,0,0,.26.76,1.48,1.48,0,0,0,1,.25c.7,0,1.08-.17,1.13-.5v.43h.73v-3.5h-.66Zm3.58-3.75h-.61v1.13H48v.43h.78v2.05a1.12,1.12,0,0,0,.26.86,1.43,1.43,0,0,0,.92.23,4.57,4.57,0,0,0,.74,0v-.43h-.52a.92.92,0,0,1-.59-.13.62.62,0,0,1-.15-.49V26.35h1.26v-.41H49.42Zm4.31,2.55h-.38c-.43,0-.65-.11-.65-.35v-.29a.36.36,0,0,1,.2-.34,1.66,1.66,0,0,1,.7-.1,7.31,7.31,0,0,1,1.14.1v-.44H53.67c-1.05,0-1.57.27-1.57.83v.3a.75.75,0,0,0,.29.62,1.31,1.31,0,0,0,.84.23h.39a.86.86,0,0,1,.5.09.33.33,0,0,1,.15.31v.35a.33.33,0,0,1-.22.34,2,2,0,0,1-.65.08,9.06,9.06,0,0,1-1.18-.17v.5a11.89,11.89,0,0,0,1.2.09,2.47,2.47,0,0,0,1.07-.18.82.82,0,0,0,.39-.78V28.2C54.85,27.64,54.47,27.36,53.73,27.36Zm5.67-1.21a.69.69,0,0,0-.37-.21,2.14,2.14,0,0,0-.44-.08H57.46a2,2,0,0,0-.43.08.73.73,0,0,0-.35.21,1.23,1.23,0,0,0-.21.37,1.93,1.93,0,0,0-.08.58v1.21a1.86,1.86,0,0,0,.1.66.7.7,0,0,0,.36.36,1.65,1.65,0,0,0,.48.14q.35,0,.69,0h.54a1.56,1.56,0,0,0,.43-.08.75.75,0,0,0,.35-.19.84.84,0,0,0,.21-.35,1.7,1.7,0,0,0,.08-.55V27.07a2,2,0,0,0-.08-.59A1,1,0,0,0,59.4,26.15ZM59,28.4a1.15,1.15,0,0,1,0,.37.38.38,0,0,1-.2.21,1.29,1.29,0,0,1-.28.08h-.86A1.38,1.38,0,0,1,57.4,29a.33.33,0,0,1-.19-.21,1.15,1.15,0,0,1,0-.37V27c0-.33.07-.52.19-.6a2.59,2.59,0,0,1,1.51,0c.13.08.2.28.2.6Zm4.89.16a.36.36,0,0,1-.22.37A1.89,1.89,0,0,1,63,29a1.34,1.34,0,0,1-.4,0,.41.41,0,0,1-.24-.13.38.38,0,0,1-.09-.18.81.81,0,0,1,0-.22V25.94h-.66V28.5a1,1,0,0,0,.26.76,1.44,1.44,0,0,0,1,.25c.71,0,1.08-.17,1.14-.5v.43h.66v-3.5h-.66ZM67.47,26a.58.58,0,0,0-.32.46v-.56h-.61v3.49h.66V27a.46.46,0,0,1,.21-.43,1.38,1.38,0,0,1,.66-.11h.37v-.56h-.33A1.28,1.28,0,0,0,67.47,26Zm3.11,2.87a.57.57,0,0,1-.18-.51V27a.68.68,0,0,1,.16-.55,1.31,1.31,0,0,1,.7-.13,4.35,4.35,0,0,1,1.14.15v-.5a4.79,4.79,0,0,0-1-.11h-.82a.85.85,0,0,0-.34.11,1.21,1.21,0,0,0-.24.21.8.8,0,0,0-.17.33,2.09,2.09,0,0,0,0,.5v1.29a1.7,1.7,0,0,0,.09.54,1.2,1.2,0,0,0,.21.34.9.9,0,0,0,.35.18,2.7,2.7,0,0,0,.41.08h.5a5.35,5.35,0,0,0,1.13-.11v-.48a4.22,4.22,0,0,1-1.06.13A1.47,1.47,0,0,1,70.58,28.91Zm3.5-4.25h.64v.67h-.64Zm0,1.27h.64v3.49h-.64Zm4.42-.08c-.7,0-1.13.17-1.13.5v-.41h-.65v3.5h.65V26.89a.49.49,0,0,1,.19-.45,1.72,1.72,0,0,1,.77-.13h.41a.43.43,0,0,1,.23.14.61.61,0,0,1,.09.18.74.74,0,0,1,0,.21v2.49h.65V26.86a1,1,0,0,0-.26-.76A1.45,1.45,0,0,0,78.5,25.85Zm5.59.42c-.11-.27-.47-.41-1.08-.41a1.78,1.78,0,0,0-1.13.27,1.13,1.13,0,0,0-.34.9v1.39a1,1,0,0,0,.29.83,1.8,1.8,0,0,0,1.14.23,2.26,2.26,0,0,0,.73-.1c.22-.07.33-.18.34-.35v.84a.6.6,0,0,1-.22.53,1.42,1.42,0,0,1-.73.16,10.88,10.88,0,0,1-1.27-.11v.47A8.2,8.2,0,0,0,83,31a2.54,2.54,0,0,0,1.25-.26,1.12,1.12,0,0,0,.42-1V25.94h-.61Zm0,2.26a.48.48,0,0,1-.22.46,1.57,1.57,0,0,1-.71.12,1.6,1.6,0,0,1-.72-.11.54.54,0,0,1-.18-.47V27a.57.57,0,0,1,.17-.48,1.36,1.36,0,0,1,.72-.12,1.56,1.56,0,0,1,.77.12.55.55,0,0,1,.18.47ZM17.16,2.71V28.2l14.06,2.71V0Zm11,8.76H24.8v9.71H22.7V11.46H19.41V9.71h8.72ZM0,30.89,14.06,28.2V2.71L0,0ZM6.4,9.71H8.51V21.18H6.4Z"/></svg>