<svg xmlns="http://www.w3.org/2000/svg" viewBox="0 0 455.01 316.01"><g style="opacity:0.5"><path d="M455,.43,417.59,66.82a3,3,0,0,0-2.54-.13L381.92,0h-.27L414.8,66.82a3,3,0,0,0-.79.58,2.93,2.93,0,0,0-.54.84l-38.8-15.16L351.86,8.7a3.57,3.57,0,0,0,.91-.7h0a3.48,3.48,0,0,0,.64-3.67L362.55,0H362l-8.7,4.08a3.68,3.68,0,0,0-.76-1,3.58,3.58,0,0,0-.39-.29L353.92,0h-.28L352,2.66a3.52,3.52,0,0,0-2.45-.43L349,0h-.28l.54,2.3a3.47,3.47,0,0,0-1.65,1,3.52,3.52,0,0,0-.64,1L338,.93,339.77,0h-.51l-1.6.82L335.48,0h-.67l2.56,1-39.23,20.1a2.75,2.75,0,0,0-.52-.67,2.78,2.78,0,0,0-1.26-.63L299.55,0h-.2l-3.24,19.73a2.67,2.67,0,0,0-2.3.88,2.5,2.5,0,0,0-.59,1.11L277,18.23,283.6,0h-.28l-6.59,18.18-22.35-4.8a1.6,1.6,0,0,0-.51-1.36l0,0-.07-.05L262.09,0h-.28l-8.19,11.83a1.56,1.56,0,0,0-.88-.24L245,0h-.28l7.75,11.62a1.62,1.62,0,1,0,1.5,2.67,1,1,0,0,0,.15-.2l14.81,22.19a1.19,1.19,0,0,0-.18.15,1.59,1.59,0,0,0-.24,1.75l-22,13.12a2.24,2.24,0,0,0-.32-.37l0,0a2.28,2.28,0,0,0-1.74-.57L237.31,0h-.24l7.15,50.35a2.23,2.23,0,0,0-1.27.71,2.28,2.28,0,0,0,.17,3.22,2.24,2.24,0,0,0,1.59.58l3.47,40L212.09,67a1.11,1.11,0,0,0-.18-1.42h0a1.14,1.14,0,0,0-1.61.08,1.17,1.17,0,0,0-.2.34l-5.48-1.78,4.64-3.41.05.07a1.38,1.38,0,0,0,1.89-.08,1.32,1.32,0,0,0,0-1.87l-.06,0a1.36,1.36,0,0,0-1.51-.2L177.34,6a3.35,3.35,0,0,0,.6-.59,3.51,3.51,0,0,0,.57-.85,3.32,3.32,0,0,0,.2-2.27L186.25,0h-.78l-6.81,2a3.34,3.34,0,0,0-.38-.81L180,0h-.46l-1.42,1a3.36,3.36,0,0,0-1.24-1h-3.15l.07.13a5,5,0,0,0-.86.66,2.79,2.79,0,0,0-.4.44A3.18,3.18,0,0,0,172,2.3L160,0h-1.2l13.13,2.52a3.39,3.39,0,0,0,.5,2.66L126.94,39l-6.62-2.15a2.44,2.44,0,0,0-.68-2.46l0,0a1.67,1.67,0,0,0-.16-.12L143.28,0H143L119.3,34.13a1.63,1.63,0,0,0-.34-.19L138.94,0h-.27L118.74,33.84a2.46,2.46,0,0,0-1.81.07L102.66,6.1a2.27,2.27,0,0,0,.55-.43,2.25,2.25,0,0,0,.43-2.24L111.52,0h-.59l-7.37,3.22a2.17,2.17,0,0,0-.51-.7,2.23,2.23,0,1,0-.61,3.7L116.69,34a2.4,2.4,0,0,0-.59.47,2.48,2.48,0,0,0-.45,2.65L104.8,42.51,96.12,0h-.24l8.73,42.61-5.83,2.87L67.87,14.2A2.27,2.27,0,0,0,67.72,11l0,0a2.29,2.29,0,0,0-3.08,3.39,2.37,2.37,0,0,0,.79.47l-16,55-4.8,2.37.24.11,3.38,1.57-5,17.14a2.73,2.73,0,0,0-2.49,4.61,2.68,2.68,0,0,0,1.14.6L35.94,122a1.85,1.85,0,0,0-1.66.56l-.05.06A1.87,1.87,0,0,0,37,125.21l35,31.34a1.92,1.92,0,0,0,.21,2.61,1.89,1.89,0,0,0,2.67-.1l.05-.06a1.93,1.93,0,0,0-.16-2.68l-.07,0L114,104.54l41.65,19.39a1.89,1.89,0,0,0,2.47,2.43l25.54,54.85a1.38,1.38,0,0,0-.41.32,1.53,1.53,0,0,0-.31.52L98.65,161.38a2.74,2.74,0,0,0-.78-2.57l-.09-.08a2.84,2.84,0,0,0-4,.19,2.79,2.79,0,0,0,.19,3.94,2.83,2.83,0,0,0,2.74.6l32.8,94.91a1.87,1.87,0,0,0-.62.43,1.76,1.76,0,0,0,2.34,2.61L157,291.34v-.24L184,184a1.48,1.48,0,0,0,1.22-.25l69.47,80.87a.81.81,0,0,0-.1.09,2.4,2.4,0,0,0,3.54,3.24h0a2.37,2.37,0,0,0-.14-3.36l0,0a2.37,2.37,0,0,0-1.16-.58l8.46-51.69,29.94,15.9a2,2,0,0,0,3.27,2.21l.06-.07a1.93,1.93,0,0,0-.14-2.74l0,0A2,2,0,0,0,297,227l-8.4-59a1.12,1.12,0,0,0,.31-.1l34.64,63a2,2,0,0,0-.29.22,1.4,1.4,0,0,0,2.09,1.87,1.38,1.38,0,0,0-.06-1.95s0,0-.05-.05l-.08-.05,35.54-54.62a1.86,1.86,0,0,0,2.31-.35h0a1.9,1.9,0,0,0-.11-2.64,1.86,1.86,0,0,0-2.21-.23l-8.8-13.21,30.35,30.22v-.2l33.3-117.54a3,3,0,0,0,2.15-.36L455,131.19v-.43L418,71.89a3.08,3.08,0,0,0,.43-.38l.06-.06a3,3,0,0,0,.6-1l36,11.61v-.24l-35.9-11.6a3,3,0,0,0,0-1.42L455,59.51v-.23l-35.91,9.33a2.92,2.92,0,0,0-.81-1.31l0,0a3.5,3.5,0,0,0-.43-.33L455,.91ZM250.43,149l27-27.25,1.92-1.26s0,.07.06.09a1.1,1.1,0,0,0,.44.28h0l.11,0-6.46,39.54-22.68-9.21A2.22,2.22,0,0,0,250.43,149ZM188,124.12a1.48,1.48,0,0,0-.27.4l-2.44-.88,3.67-.14v.08A1.69,1.69,0,0,0,188,124.12ZM45.26,93.45a2.85,2.85,0,0,0-.34-1.13L63.34,81l24,11.16ZM63.58,80.83l40.59-25a3.73,3.73,0,0,0,.52.61,3.45,3.45,0,0,0,3.64.64l14.28,31.26a3,3,0,0,0-.91.7,3.07,3.07,0,0,0-.78,2l-33.07,1Zm184.9,14.71v-.2l.26.21Zm1.44.52a2.13,2.13,0,0,0-.59-.36L269.46,39a1.59,1.59,0,0,0,1.63-.42l19.68,14.69-10.38,65.16-.11.11a1.2,1.2,0,0,0-.84.37L250.2,96.38A2.07,2.07,0,0,0,249.92,96.06Zm31.57,23.64a1,1,0,0,0-.18-.56,1.2,1.2,0,0,0-.19-.27,1.15,1.15,0,0,0-.5-.26v0l24.95-25.15a1.52,1.52,0,0,0,.54.3l-6.68,27.13-17.94-1.14Zm26.29-28.78,0,0a1.67,1.67,0,0,0-2.38,2.35l-24.68,24.89L291,53.44l11.95,8.93.63,3.49,5.36,29.49-1.27-1.9a1.71,1.71,0,0,0,.2-.18h0A1.67,1.67,0,0,0,307.78,90.92ZM347.84,8.23a3.73,3.73,0,0,0,1.07.66L338.07,38.78l-35.79-14L347,7.06A3.52,3.52,0,0,0,347.84,8.23ZM338,39,324.55,76.09a1.9,1.9,0,0,0-1.95.52l0,0L303.19,62.2,296.79,27l5.14-2ZM297.28,26.52l-.53.21-.31-1.7a2.69,2.69,0,0,0,1.38-.81,2.62,2.62,0,0,0,.45-.72l3.34,1.3Zm18.64,93.11,0,0a3,3,0,0,0-2.41-.73l-4.06-22.35L323.09,117l-6.59,3.37A3,3,0,0,0,315.92,119.63Zm-6.6-23.7-6.05-33.31L322.39,76.9a1.88,1.88,0,0,0,.34,2.37h0a1.92,1.92,0,0,0,2.68-.11l27.81,22.42-29.95,15.32ZM271.45,37l23.38-9.27-4,25.23L271.25,38.38A1.53,1.53,0,0,0,271.45,37Zm23.64-9.37,1.41-.56L302.86,62,291,53.13Zm58.37,73.83L325.56,79a1.85,1.85,0,0,0,.34-.91l39.35,1.31,23,.77L387,84.3ZM325.91,77.83a1.89,1.89,0,0,0-.62-1.33h0a2.07,2.07,0,0,0-.52-.33l13.45-37.07,36.27,14.17,13.69,26.65ZM296.14,25.08l.32,1.76-1.33.53.37-2.28A3.43,3.43,0,0,0,296.14,25.08ZM158.78,123.31l9.47-10.25-1.77,4L184,123.44l-24.66,1A1.89,1.89,0,0,0,158.78,123.31Zm-.18-.17a1.9,1.9,0,0,0-1.88-.31L141.2,88,179,81a3.73,3.73,0,0,0,2.15,2.66l-12.56,28.72ZM179,79a3.75,3.75,0,0,0-.11,1.76l-37.82,7L129.54,61.89Zm-50-17.6-18.74-6.49a3.5,3.5,0,0,0-.46-3l11.24-8.34Zm55.56,62L166.83,117l2-4.53,7.2-7.81,8.82-9.54,4,28.15ZM170.74,110l-1.63,1.76,12.25-28a3.89,3.89,0,0,0,1.88.21l1.55,10.8Zm14.67-32.66-.06-.06a3.83,3.83,0,0,0-2.82-1L180.67,56.7l23.38,7.58L185.78,77.75A3.6,3.6,0,0,0,185.41,77.34Zm-3.12-1a3.82,3.82,0,0,0-3.17,2.46L129.39,61.54l-8.07-18.09,5.62-4.18,53.48,17.35ZM118.82,38.48,121,43.4l-11.27,8.39a3.89,3.89,0,0,0-.38-.43,3.45,3.45,0,0,0-.45-.33l7.56-12.86A2.46,2.46,0,0,0,118.82,38.48Zm-14.35,13.1a3.45,3.45,0,0,0-.42,4.06L63.34,80.72,48.46,73.8l1.09-3.75L98.78,45.77l5.72,5.79Zm16.45,39.73a3.08,3.08,0,0,0,1,2.12l.06,0-8.15,10.75L88.31,92.34Zm5.19-2.44,0-.05a3.09,3.09,0,0,0-3.25-.54L108.54,57a3.35,3.35,0,0,0,1-.77h0a3.3,3.3,0,0,0,.63-1l1.07.36,17.92,6.21,11.65,26.1L127,90.45A3,3,0,0,0,126.11,88.87Zm153.1,31.37h0a.09.09,0,0,0,0,0l-.95.62.86-.86A1.21,1.21,0,0,0,279.21,120.24Zm1,.71h.08a.93.93,0,0,0,.23,0l.18,0a1.09,1.09,0,0,0,.45-.29h0a1.15,1.15,0,0,0,.27-.63l17.92,1.14L288.57,165a1.59,1.59,0,0,0-1.44.49,1.46,1.46,0,0,0-.25.41l-13.11-5.33ZM286.8,166a1.63,1.63,0,0,0,.08,1.15l-15.63,8.74,2.48-15.19Zm19.54-72.24a1.64,1.64,0,0,0,1.12-.21L309,96l4.17,23a3.05,3.05,0,0,0-1.55.91,3,3,0,0,0-.75,1.77l-11.25-.72Zm9.76,30.08a3,3,0,0,0,.53-3.27l6.6-3.38,27.31,41-34.46-34.3ZM386.94,84.6l-10.57,35.33-22.7-18.29Zm.27-.39,1.21-4h.15L388.5,80l0,0v0h0L374.83,53.4l38.52,15h0a3,3,0,0,0,.13,2.31L409.16,73Zm-12.9-31.27-36-14.07L349.13,9a3.56,3.56,0,0,0,2.53-.15ZM337.67,1.08l9.21,3.47a3.56,3.56,0,0,0,0,2.28L302,24.66l-3.58-1.4a2.77,2.77,0,0,0-.12-2Zm-44.5,20.86a2.68,2.68,0,0,0,.84,2.48,2.64,2.64,0,0,0,1.25.62l-.38,2.43-23.52,9.32a1.31,1.31,0,0,0-.33-.45l0,0a1.83,1.83,0,0,0-.46-.28l6.37-17.58Zm-38.92-8.09a1.83,1.83,0,0,0,.08-.25l22.32,4.79L270.29,36a1.6,1.6,0,0,0-1.17.19Zm-9.31,41a2.25,2.25,0,0,0,1.72-3.3l22-13.14a1.37,1.37,0,0,0,.25.29,1.74,1.74,0,0,0,.36.24L249.12,95.55l-.68-.52Zm3.3,40.74a2,2,0,0,0-1.23.65A2.06,2.06,0,0,0,250.07,99a2.12,2.12,0,0,0,.38-2.11l28.86,22.26a1.14,1.14,0,0,0-.19.55l-90,3.56L185,94.9l25.47-27.56A1.14,1.14,0,0,0,212,67.2l36.24,27.94ZM210,66.23a1.12,1.12,0,0,0,.25.92L185,94.58,183.44,84a3.8,3.8,0,0,0,2.17-1.19h0a3.82,3.82,0,0,0,.32-4.8l18.44-13.56Zm-.58-7.44a2.15,2.15,0,0,0-.24.18,1.33,1.33,0,0,0-.13,1.61l-4.8,3.53-23.64-7.67L175.91,6.61a3.22,3.22,0,0,0,1.24-.52ZM172.58,5.39a3.4,3.4,0,0,0,.59.61,3.45,3.45,0,0,0,2.51.67l4.71,49.69L127.2,39.08Zm-45.9,33.8-5.45,4.05-2.17-4.86a2.49,2.49,0,0,0,.7-.53h0a2.48,2.48,0,0,0,.47-.75Zm-10.9-1.8a2.16,2.16,0,0,0,.47.62h0l-7.58,12.87a3.49,3.49,0,0,0-2.26-.37l-1.58-7.74Zm-11.12,5.48,1.58,7.68a3.44,3.44,0,0,0-1.59.88L99,45.68Zm-39-28a2.26,2.26,0,0,0,2.09-.56L98.59,45.58,49.64,69.73ZM45.11,72.24l4.15-2-1,3.51ZM48.39,74,63.1,80.87,44.81,92.14a2.48,2.48,0,0,0-.42-.5l0,0a2.64,2.64,0,0,0-1-.5Zm-6.34,22.3a2.7,2.7,0,0,0,1.56-.19l28.93,60a1.9,1.9,0,0,0-.4.3l-35-31.34a1.91,1.91,0,0,0-.22-2.56,1.87,1.87,0,0,0-.74-.41Zm32.48,59.82a1.88,1.88,0,0,0-1.75-.18L43.83,96a2.74,2.74,0,0,0,.73-.56h0a2.68,2.68,0,0,0,.7-1.77l42.52-1.34,25.92,12.06Zm39.59-51.8,8.12-10.7a3.09,3.09,0,0,0,4.06-.46,3,3,0,0,0,.76-2.51L141,88.08l15.55,34.85a1.69,1.69,0,0,0-.5.39,1.89,1.89,0,0,0-.27.38Zm44.17,21.92a1.87,1.87,0,0,0,.51-.39h0a1.81,1.81,0,0,0,.49-1.21l25.29-1,3,1.09a1.73,1.73,0,0,0,2.93,1.68h0a1.73,1.73,0,0,0-.12-2.44,1.77,1.77,0,0,0-1.26-.45v-.06l89.8-3.56-1.66,1.68L269,127l-83.54,54.59c0-.06-.07-.13-.13-.18a1.51,1.51,0,0,0-1.54-.28ZM96.91,163.39a2.9,2.9,0,0,0,1.06-.72,2.7,2.7,0,0,0,.61-1.06l84.28,20.67a1.48,1.48,0,0,0,.48,1.38l0,0L174,197.11l-42.92,61.36a1.78,1.78,0,0,0-1.33-.18Zm60,127.4-25.49-29.55.07-.06h0a1.75,1.75,0,0,0-.11-2.47h0l-.08-.06,52.27-74.8a1.38,1.38,0,0,0,.3.14ZM256.64,264a2.44,2.44,0,0,0-1.73.49l-69.49-80.85.05-.05h0a1.51,1.51,0,0,0,.16-1.74l67.11-43.88,23.68-15.47-26.16,26.38a2.23,2.23,0,1,0,.17,3.16,2,2,0,0,0,.36-.56l22.74,9.22L271,176.05l-33.38,18.66a3,3,0,0,0-.52-.66,2.85,2.85,0,1,0,.18,4l0,0a2.73,2.73,0,0,0,.33-.45l27.46,14.58Zm-18.9-69L271,176.35l-5.81,35.58-27.41-14.54A2.84,2.84,0,0,0,237.74,194.91Zm59,32.15a2.05,2.05,0,0,0-1.17.61,3.15,3.15,0,0,0-.22.29l-30-15.93,5.86-35.81L287,167.39a1.27,1.27,0,0,0,.24.28,1.51,1.51,0,0,0,1.15.4ZM325,230.83a1.38,1.38,0,0,0-1.22,0l-34.64-62.95a1.81,1.81,0,0,0,.34-.28h0a1.67,1.67,0,0,0,.35-.72l70,7.82a1.84,1.84,0,0,0,.6,1.44,1.09,1.09,0,0,0,.17.13Zm35.58-57.62a2,2,0,0,0-.72,1.14l-68.42-7.61-1.57-.17a1.54,1.54,0,0,0-1.07-1.56l10.07-40.82.76-3.1,11.29.71a3,3,0,0,0,5,2.24l35.29,35.13Zm21.61,16.46-30.89-30.75-27.85-41.8,30-15.37,23.05,18.58v-.16L387.12,84.5l17.79-9.11,8.7-4.44a2.94,2.94,0,0,0,.53.7,3.05,3.05,0,0,0,1.2.67Z" transform="translate(0.01 0.01)" style="fill:#bf3000;opacity:0.9599999785423279;isolation:isolate"/><path d="M414.69,21.89a1.93,1.93,0,0,0,2.88,2.58h0a2,2,0,0,0-.15-2.72,1.9,1.9,0,0,0-.67-.39L422.23,0H422l-5.5,21.29-.2,0L416.71,0h-.24L416,21.25a1.35,1.35,0,0,0-.28,0L410.25,0H410l5.53,21.35A1.87,1.87,0,0,0,414.69,21.89Z" transform="translate(0.01 0.01)" style="fill:#bf3000;opacity:0.9599999785423279;isolation:isolate"/><path d="M170.54,176.69a.84.84,0,1,0-1.19.08A.84.84,0,0,0,170.54,176.69Z" transform="translate(0.01 0.01)" style="fill:#bf3000;opacity:0.9599999785423279;isolation:isolate"/><path d="M329.57,220.13a2,2,0,1,0,.16,2.83,2,2,0,0,0-.16-2.83Z" transform="translate(0.01 0.01)" style="fill:#bf3000;opacity:0.9599999785423279;isolation:isolate"/></g><g style="opacity:0.5"><path d="M455,15.09v-.28l-26.71,3.37-13-16.57A4.22,4.22,0,0,0,416.43,0h-8a4.28,4.28,0,0,0,3.06,2.52l-3.58,17.8a3.16,3.16,0,0,0-2.77-2.14L405.44,0l.16,0h-1.38L358.53,9.93,344.33,6.5a4.43,4.43,0,0,0,.09-.9,4.36,4.36,0,0,0-1.13-2.93L346.11,0h-.43L343.1,2.44A4.43,4.43,0,0,0,340,1.15a4.8,4.8,0,0,0-1,.12L338.63,0h-.32l.36,1.36a4.44,4.44,0,0,0-3.15,4.24,3.93,3.93,0,0,0,.06.59l-6.27,1.07-5.41.92L323.66,0h-.31l.22,8.24L307.15,11l-17-6.44L293.29,0h-.36l-3.09,4.49L278,0h-.79l12.46,4.73-4.75,6.9a4.34,4.34,0,0,0-2.31-.67,4.49,4.49,0,0,0-1.51.28L276.7,0h-.31l4.43,11.34a4.41,4.41,0,0,0-2.11,2L251.73,0h-.67l27.49,13.61a4.34,4.34,0,0,0-.39,1.8,4.45,4.45,0,0,0,.28,1.51L240.83,32.27,228.73.34,228.6,0h-.31l12.25,32.39L224.24,39,193.93,51.4a2.43,2.43,0,0,0-2.2-1.41h0L188.8,19.2,203.59,0h-.4L188.76,18.74,187,0h-.59l-13,8.47L175.5,0h-.32L173,8.71l-30.68,20L111.13,0h-.43l.16.15,3.45,44.43a2.24,2.24,0,0,0-1.17.55L86.56,18,106.25,0h-.44L86.35,17.74,69,0h-.38L86.13,17.93,60.64,41.16a3,3,0,0,0-2.11-.87,3.11,3.11,0,0,0-.81.12L43.69,0h-.32l14,40.51a3,3,0,0,0-1.87,2.78,2.88,2.88,0,0,0,.24,1.17l-49,23.39a3.62,3.62,0,1,0-3.2,5.33h0a3.48,3.48,0,0,0,.73-.07L24.74,154a2.47,2.47,0,0,0,.78,4.82,2.5,2.5,0,0,0,1.3-.37l18,24.84a1.81,1.81,0,0,0,1.14,3.22h0a1.87,1.87,0,0,0,1.82-1.81.88.88,0,0,0,0-.17l18-2.86,67.11,21.12a2.76,2.76,0,0,0-.09.65,2.64,2.64,0,0,0,5.28,0,2.69,2.69,0,0,0-.2-1l137.62-68a3.79,3.79,0,0,0,2.12,1.75L244.14,255a3.27,3.27,0,1,0-.76,6.44,3.27,3.27,0,0,0,3.1-2.26L455,316v-.28L246.57,258.86a3.44,3.44,0,0,0,.05-.45L403.71,264a3,3,0,0,0,5.32,1.81l46,33.07h0v-.35l-45.77-33a3.06,3.06,0,0,0,.47-1.61,3,3,0,0,0-.81-2l25.08-26,21-21.77v-.44h0l-7,7.22-39.38,40.75a3,3,0,0,0-1.95-.74,3,3,0,0,0-1.49.41l-41.45-62.71-10-15.1a3.78,3.78,0,0,0,1.57-2.93l99.64-.84v-.27l-99.65.79a3.79,3.79,0,0,0-1.84-3.05L389,110.78a3.68,3.68,0,0,0,4.47-1L455,155v-.4l-61.34-45.12a3.6,3.6,0,0,0,.63-2v0a3.68,3.68,0,0,0-.47-1.77L455,69.4v-.35l-61.32,36.32a3.77,3.77,0,0,0-2.26-1.59L402,51.25,438.72,32,455,52.62v-.47L439,31.81l16-8.41v-.32l-16.17,8.5L428.5,18.45ZM101.6,128.16,88.45,109.87,100,82.41l30-16.09,9,11.31a3.79,3.79,0,0,0,0,5.71L104.24,125ZM79.47,94.45a2.17,2.17,0,0,0-.2-.92l15-8,5.31-2.86-11.31,27L78.63,96.22A2.28,2.28,0,0,0,79.47,94.45ZM163,52.23l-.74,1,.26-1C162.63,52.2,162.8,52.21,163,52.23Zm-3.12-2a4.07,4.07,0,0,0,2.37,1.85l-.43,1.67-18.17,23.6a3.79,3.79,0,0,0-4.46.07l-9-11.26Zm-.58-2.11v0a4,4,0,0,0,.43,1.8L149.21,55.6,130,65.92,116.22,48.59a2.26,2.26,0,0,0,.78-1.71,2.47,2.47,0,0,0-.12-.72l14.46.67Zm0-.28-35.67-1.66-6.86-.32a.54.54,0,0,0-.05-.11l25.6-16.67,17.91,16.47A4.07,4.07,0,0,0,159.29,47.85ZM143.84,77.56l17.75-23L153.84,85,145,81.7a3.91,3.91,0,0,0,.21-1.19A3.79,3.79,0,0,0,143.84,77.56ZM162,54l1.3-1.68h.05a4.07,4.07,0,0,0,1.26-.22l15.91,43.13-26.43-10Zm2.87-2a4.08,4.08,0,0,0,2.49-3l21.93,3.3a1.1,1.1,0,0,0,0,.18,2.45,2.45,0,0,0,2.4,2.44l1.85,32.54.73,13-13.39-5.08ZM192,54.84a2.46,2.46,0,0,0,1.13-.46l49.24,58.28a3.53,3.53,0,0,0-1.17,2.61,3.48,3.48,0,0,0,.31,1.44l-1.9.91-45-17.1Zm49.63,62.1a3.53,3.53,0,0,0,3.11,1.89h0a3.53,3.53,0,0,0,3.55-3.53h0A3.57,3.57,0,0,0,246.2,112l12.23-32.33,18.72,49.46a3.77,3.77,0,0,0-1.92,2L240,117.74ZM324,22.22h0a4.58,4.58,0,0,0,2.63-.82l13.36,18-20.92-8.82L322.5,22A4.75,4.75,0,0,0,324,22.22Zm27.1,22.24a3,3,0,0,0-.16.9,2.8,2.8,0,0,0,1.11,2.23l-2.65,4-8.47-11.44Zm.13-.3-10.69-4.51L326.89,21.2a4.57,4.57,0,0,0,1.73-3.54v-.05a3.86,3.86,0,0,0-.09-.84l14.07-3.06,10.06,29.08A2.75,2.75,0,0,0,351.24,44.16ZM333.58,83l-9.36,8.12-.26-.23L349.48,52.2l7.68,10.36Zm16.07-31.09,2.73-4.14a2.71,2.71,0,0,0,1.36.37h0a2.75,2.75,0,0,0,2.79-2.71v-.08a2.84,2.84,0,0,0-.2-1.05l45.81-21.55a2.59,2.59,0,0,0,.3.46L357.38,62.37ZM319,30.92l21.43,9,8.84,11.93L323.66,90.72a2.48,2.48,0,0,0-1.18-.33h0a2.46,2.46,0,0,0-1,.21L306.73,62Zm5.45,60.47,32.92-28.58,6.18,8.33-39,20.47Zm-2.2-69.53-3.41,8.63L286.75,17a3.84,3.84,0,0,0,.25-2.19l20.14-3.44,12.53,4.75a4.75,4.75,0,0,0-.27,1.51A4.61,4.61,0,0,0,322.22,21.86Zm-35.6-4.57L318.69,30.8,306.54,61.62,284.73,19.29A4.46,4.46,0,0,0,286.62,17.29Zm-6.33,111.86,26.3-66.8,14.62,28.39a2.45,2.45,0,1,0,3.69,2.13,2.5,2.5,0,0,0-.2-1l39-20.5,24.54,33.11a3.72,3.72,0,0,0-1.43,2.92,3.6,3.6,0,0,0,.07.66L282.36,131.64A3.78,3.78,0,0,0,280.29,129.15ZM401.84,20.71a2.91,2.91,0,0,0-.06.6,3.26,3.26,0,0,0,.23,1.18L356.2,44a2.77,2.77,0,0,0-2.44-1.47,2.89,2.89,0,0,0-.78.12l-10.05-29,15.63-3.41,8,1.93Zm-59-7.36-1.25-3.62a4.47,4.47,0,0,0,2.67-2.95l13.64,3.29ZM340,10.05h0a4.07,4.07,0,0,0,1.26-.22l1.24,3.59-14,3A4.61,4.61,0,0,0,324,13l-.13-4.52,11.7-2A4.44,4.44,0,0,0,340,10.05ZM323.7,13a4.62,4.62,0,0,0-3.94,2.79L307.7,11.25l15.88-2.71ZM287,14.49a4.41,4.41,0,0,0-1.73-2.66l4.76-7,16.6,6.29Zm-4.35,5.37a4.5,4.5,0,0,0,1.87-.43L306.4,62,280,129a3.83,3.83,0,0,0-1.22-.23,3.87,3.87,0,0,0-1.23.21l-18.9-49.83L281.16,19.6A4.38,4.38,0,0,0,282.61,19.86ZM258.28,79.28l-12.37,32.65a3.41,3.41,0,0,0-1.11-.2,3.56,3.56,0,0,0-2.17.75l-47.31-56-1.91-2.27a2.35,2.35,0,0,0,.63-2.5l46.61-19ZM189.34,52l-21.93-3.3a3.75,3.75,0,0,0,.05-.47h0a4.26,4.26,0,0,0-.16-1.07l21.17-27.48L191.29,50A2.44,2.44,0,0,0,189.34,52ZM171.93,13.12l-7.71,31a4.1,4.1,0,0,0-3.77,1.13L142.6,28.9,172.91,9.17ZM114.66,49.2h0a2.26,2.26,0,0,0,1.3-.41l13.73,17.28L100.15,81.94l13.78-32.87A2.2,2.2,0,0,0,114.66,49.2Zm167.11,85.63,66.59,43.66a3.74,3.74,0,0,0,1.54,5.31l-23,51.86a2.42,2.42,0,0,0-.85-.16,2.39,2.39,0,0,0-.89.17L280.38,136A3.79,3.79,0,0,0,281.77,134.83ZM246.59,257.55l77-18.74a2.54,2.54,0,0,0,4.81.18l75.36,24.16a2.41,2.41,0,0,0-.07.48l-157.08-5.49A2.88,2.88,0,0,0,246.59,257.55Zm157.31,5.28-75.36-24.16a2.33,2.33,0,0,0,.08-.59v0a2.53,2.53,0,0,0-1.4-2.27l23-51.85a3.69,3.69,0,0,0,3.34-.29l51.38,77.83A3.06,3.06,0,0,0,403.9,262.83ZM390.55,103.67a3.74,3.74,0,0,0-2.11.65L364,71.25l37.69-19.81-10.53,52.29A3.55,3.55,0,0,0,390.55,103.67ZM363.77,71l-6.21-8.39,45.09-39.15a3.11,3.11,0,0,0,4.64-.1l-5.58,27.71Zm41.06-52.84a3.16,3.16,0,0,0-2.91,2.24L379.48,15,359.2,10.09l46-10Zm-126.27-.93a4.47,4.47,0,0,0,2.35,2.28L258.47,78.78,241,32.56l27.33-11.14ZM167.19,46.74a4.09,4.09,0,0,0-2.7-2.49l8.79-35.32L186.67.21l1.76,19Zm-50.67-1.27a2.32,2.32,0,0,0-1.84-.93h-.05L111.16.43l30.9,28.42Zm-56.82.58a3,3,0,0,0,1.8-2.46l51,2.36a2.32,2.32,0,0,0,1.14,3L99.76,82.16,79.11,93.24a2.29,2.29,0,0,0-1.94-1.07,2.35,2.35,0,0,0-.6.09L61.31,50.49Zm41.68,82.37-40.75,49a3,3,0,0,0-.38-.24L88.3,110.23Zm-40.5,49.17,40.68-48.92,29.15,40.53a2.32,2.32,0,0,0-.84,1.78c0,.09,0,.17,0,.25L65.83,181.4l-4.22-1.33a2.51,2.51,0,0,0,.08-.62h0A2.55,2.55,0,0,0,60.88,177.59Zm71.37-9A2.35,2.35,0,0,0,131,169l-29.19-40.59L139.1,83.53a3.7,3.7,0,0,0,2,.76L138,147.53l-5.36,21.13A2.45,2.45,0,0,0,132.25,168.62ZM141,92.67l.41-8.34h0a3.83,3.83,0,0,0,3.51-2.3l8.83,3.35L138.37,146Zm53.33,8.12,2,35a3,3,0,0,0-.43.09L181,95.75Zm2.31,35-2-34.83,44.53,16.93-40.4,19.24A2.5,2.5,0,0,0,196.6,135.75ZM353.2,177a3.74,3.74,0,0,0-4.68,1.22l-57.76-37.87-8.83-5.8a3.63,3.63,0,0,0,.56-1.87v-.08a3.71,3.71,0,0,0-.06-.67l64.93-14.66,39.58-8.94a3.73,3.73,0,0,0,1.67,2.24l-15.81,29.7ZM427.92,18.23l-19.77,2.49L411.8,2.59a4.44,4.44,0,0,0,.63,0A4.2,4.2,0,0,0,415,1.82Zm-315,27.12a2,2,0,0,0-.24.33l-51.15-2.4a3,3,0,0,0-.69-1.89l25.5-23.24Zm-57-.62a3,3,0,0,0,2.62,1.56,3.17,3.17,0,0,0,.87-.14l.49,1.35L76.25,92.37a2.27,2.27,0,0,0-1.17,1.19l-56.5-19.1L7.09,70.57a3.59,3.59,0,0,0,.16-1v0A3.69,3.69,0,0,0,7,68.11ZM4.63,73A3.58,3.58,0,0,0,7,70.87l68,23a2.2,2.2,0,0,0-.09.58v0a2.23,2.23,0,0,0,.71,1.64L53,123.14,27,154.35a2.44,2.44,0,0,0-1.43-.46A2.24,2.24,0,0,0,25,154Zm22.42,85.29a2.45,2.45,0,0,0,.95-1.92v0a2.47,2.47,0,0,0-.8-1.82L75.83,96.3a2.43,2.43,0,0,0,.44.26L46.35,183a1.84,1.84,0,0,0-.41,0,1.78,1.78,0,0,0-1,.28Zm20.64,26a1.85,1.85,0,0,0-1-1.23l14.48-41.79L76.61,96.67a2.2,2.2,0,0,0,.58.08,2.22,2.22,0,0,0,1.17-.34L88.11,110,60,177.05a2.48,2.48,0,0,0-.86-.16,2.56,2.56,0,0,0-2.56,2.56h0a2.56,2.56,0,0,0,4.94.93l3.6,1.14Zm18.74-2.69,63.5-10.09a2.37,2.37,0,0,0,2.3,1.86h0a2.37,2.37,0,0,0,.65-4.64l5-19.78-2.52,51.89h0a2.64,2.64,0,0,0-2.45,1.67Zm71.25,20.65a2.63,2.63,0,0,0-2-1.38l2.59-53.42,15.72-62,26.69,10.15L195.59,136a2.49,2.49,0,0,0,1,4.78h0a2.48,2.48,0,0,0,2.48-2.46v0a2.49,2.49,0,0,0-.17-.91L239.51,118,275.1,131.5a4,4,0,0,0-.17,1,3.77,3.77,0,0,0,.4,1.7Zm140.13-66a3.5,3.5,0,0,0,.86.12h0a3.53,3.53,0,0,0,1.38-.25l5.53,12.33,39.22,87.38a2.55,2.55,0,0,0-1.34,2.24,3.27,3.27,0,0,0,0,.44l-77,18.73a3.25,3.25,0,0,0-2.12-2.19ZM438.54,31.73,402.07,50.89l5.68-28.21a3.18,3.18,0,0,0,.33-1.37,1,1,0,0,0,0-.17l0-.1,20.05-2.54Z" transform="translate(0.01 0.01)" style="fill:#74b3bf"/><path d="M109.83,0h-2.76a2.7,2.7,0,0,0,1.38.4A2.58,2.58,0,0,0,109.83,0Z" transform="translate(0.01 0.01)" style="fill:#74b3bf"/></g></svg>