<svg xmlns="http://www.w3.org/2000/svg" width="20" height="20" viewBox="0 0 20 20"><path d="M18.9,0H1.1A1.14,1.14,0,0,0,.32.32,1.14,1.14,0,0,0,0,1.1V18.9a1.14,1.14,0,0,0,.32.78A1.14,1.14,0,0,0,1.1,20h9.58V12.25H8.08v-3h2.6V7a3.74,3.74,0,0,1,.18-1.56,3.64,3.64,0,0,1,.83-1.34A3.71,3.71,0,0,1,13,3.23,3.62,3.62,0,0,1,14.56,3a22.58,22.58,0,0,1,2.33.12v2.7H15.3c-1.26,0-1.5.6-1.5,1.47V9.22h3l-.39,3H13.8V20h5.1a1.2,1.2,0,0,0,.42-.08,1.1,1.1,0,0,0,.6-.6A1.2,1.2,0,0,0,20,18.9V1.1a1.2,1.2,0,0,0-.08-.42,1.26,1.26,0,0,0-.24-.36,1.26,1.26,0,0,0-.36-.24A1.2,1.2,0,0,0,18.9,0Z"/></svg>
