<svg xmlns="http://www.w3.org/2000/svg" width="20" height="20" viewBox="0 0 20 20"><path d="M18.52,0h-17A1.54,1.54,0,0,0,.92.1,1.52,1.52,0,0,0,.44.41,1.27,1.27,0,0,0,.12.88,1.3,1.3,0,0,0,0,1.43V18.57a1.3,1.3,0,0,0,.12.55,1.27,1.27,0,0,0,.32.47,1.52,1.52,0,0,0,.48.31,1.54,1.54,0,0,0,.56.1h17a1.54,1.54,0,0,0,.56-.1,1.52,1.52,0,0,0,.48-.31,1.27,1.27,0,0,0,.32-.47,1.3,1.3,0,0,0,.12-.55V1.43a1.3,1.3,0,0,0-.12-.55,1.27,1.27,0,0,0-.32-.47A1.52,1.52,0,0,0,19.08.1,1.54,1.54,0,0,0,18.52,0ZM6.07,16.74h-3v-9h3ZM4.56,6.48A1.56,1.56,0,0,1,3.45,3.82a1.53,1.53,0,0,1,1.11-.46,1.78,1.78,0,0,1,.65.06,1.59,1.59,0,0,1,.58.33,1.69,1.69,0,0,1,.39.53,1.64,1.64,0,0,1,0,1.28,1.69,1.69,0,0,1-.39.53,1.56,1.56,0,0,1-1.23.39ZM17,16.74h-3V11.91c0-1.21-.43-2-1.53-2a1.67,1.67,0,0,0-.94.3,1.62,1.62,0,0,0-.6.79,2,2,0,0,0-.11.73v5h-3v-9h3V9a3.14,3.14,0,0,1,1.16-1.13,3.06,3.06,0,0,1,1.57-.37c2,0,3.47,1.29,3.47,4.06Z"/></svg>
