<svg xmlns="http://www.w3.org/2000/svg" width="20" height="16" viewBox="0 0 20 16"><path d="M20,1.92a8.76,8.76,0,0,1-2.36.63A4.1,4.1,0,0,0,19.45.32a8.41,8.41,0,0,1-2.61,1A4.16,4.16,0,0,0,11.89.48a4,4,0,0,0-1.8,1.9A3.92,3.92,0,0,0,9.84,5,11.85,11.85,0,0,1,5.16,3.75a11.7,11.7,0,0,1-3.77-3,4,4,0,0,0-.55,2,3.94,3.94,0,0,0,.48,1.9A4.05,4.05,0,0,0,2.66,6.14,4,4,0,0,1,.8,5.64v.05a4,4,0,0,0,.94,2.54A4.07,4.07,0,0,0,4.1,9.62,4.13,4.13,0,0,1,3,9.79a4.9,4.9,0,0,1-.77-.07,4,4,0,0,0,1.46,2,4.21,4.21,0,0,0,2.37.79A8.24,8.24,0,0,1,1,14.24a8.39,8.39,0,0,1-1-.06A11.73,11.73,0,0,0,6.29,16a11.67,11.67,0,0,0,4.49-.84,11.58,11.58,0,0,0,3.82-2.49A11.34,11.34,0,0,0,18,4.52V4A8.41,8.41,0,0,0,20,1.92Z"/></svg>
