<svg xmlns="http://www.w3.org/2000/svg" xmlns:xlink="http://www.w3.org/1999/xlink" style="display:none"><symbol id="down-arrow"><path d="M5.5 6L0 0h11z"/></symbol><symbol id="quotes-icon"><path d="M54 11.11a11.57 11.57 0 10-13.2 11.8 11.23 11.23 0 01-10.76 8V35A23.92 23.92 0 0054 11.94v-.41-.14-.28zM24 11.13a11.57 11.57 0 10-13.2 11.8A11.23 11.23 0 010 30.88V35a23.92 23.92 0 0024-23.06v-.41-.14-.28z"/></symbol><symbol id="right-arrow"><path d="M6 5.5L0 11V0z"/></symbol><symbol id="wireless-ukraine-logo" viewBox="0 0 600 139"><path d="M258.44 137.41h58.61v-31.27h-29V93.47h29V61.76c-7 .11-28.85 0-28.85 0v-13.9h28.85v-31.5h-58.61zM104.48.11C102.11.11 101.33.9 101 3c-2 12-4.06 23.87-6.2 35.75-1.35 7.73-2.7 15.34-4.06 23-.11 0-.22-.12 0-.12-.34-2.24-.79-4.37-1.13-6.61-3-17.6-6.2-35.08-9.24-52.68C80.14.78 79.57 0 77.77 0c-7.44.11-15 .11-22.43 0a2.36 2.36 0 00-2.7 2.24l-7.11 39.68c-1.12 6.5-2.36 12.89-3.49 19.39A118.26 118.26 0 0139.34 49C36.52 33.51 33.7 18.16 31 2.69 30.66.9 30 0 27.84 0c-8.57.22-17 .11-25.47.11A17.36 17.36 0 000 .34c.11.89.11 1.57.23 2.13C2.14 12.22 3.94 22 5.86 31.72c5.3 27.57 10.48 55.14 16 82.71.19 1 6.08 22.42 6.08 22.42L55 137l3.83-19.69c.34-2.13.68-3.82.91-5.5s.45-3.25.67-4.81c-3.49-.79-6.65-1.24-9.58-2.13-4.84-1.69-6.31-6.06-3.72-10.76-.34 3.13-.11 5.94 2.37 7.84 3.16 2.47 6.54 1.46 10 .56 2.82-.67 2-3.14 2.71-4.93.11-.22 0-.67.11-1 1.24-7.06 2.48-14 3.83-21.63 1.47 7.73 2.71 14.79 4.06 22.3 1.58-1 2.7-1.57 3.72-2.24a108.51 108.51 0 0029.64-29.81 78.94 78.94 0 008.68-17.48c2.37-7.07-1.92-11.32-9.36-10-.11 0-.33-.11-.45-.11 7-3.36 11-1.68 12.29 5.71a63.4 63.4 0 01.67 16c-1.57 15.13-7.77 28-20.28 37.44-1.81 1.34-4.62 2.35-5.08 4-.45 1.91 1.13 4.26 1.92 6.5 1 3.15 2.07 6.3 3.27 9.76l.11.33L104 137.4h1.13c7.32-39.23 19.5-98 26.82-137.07-1.35 0-2.25-.12-3.15-.12-8.09.01-16.2.01-24.32-.1zM83.63 83.72c-.45.11-1.24-.45-1.69-.89-5.52-6.17-11-12.44-16.57-18.72a82.9 82.9 0 00-6.65-7.4c-1-.89-2.7-1-4.17-1.34-2.7-.68-3.94-2.36-3.72-5.27s1.69-4.37 4.51-4.37a5.28 5.28 0 015.52 5 8 8 0 001.81 4.48C69.77 63.44 77 71.62 84 79.8a4.5 4.5 0 011.35 2.47c-.03.44-1.04 1.23-1.72 1.45z"/><path d="M78.78 114.66c-.56-3.37-1.57-6.73-2.36-10.09-4.85 1.23-4.85 1.23-4.17 5.49.22 1.23.45 2.58.67 3.92l5.19 23.23h5.63l-4.81-21.91a6.22 6.22 0 01-.15-.64zM513.05 53.23c-.05.1-.05.13 0 0z"/><path d="M491.63 59.17a15.65 15.65 0 01-5.63-2.46c-2.48-1.57-3.27-5-2.14-8s3.27-3.7 6.08-3.36c2.48.34 5 .34 7.22 1.12 5.29 2 10.47 4.48 15.88 6.72l.12-.33c1.92-8.3 3.83-16.48 5.64-24.66a3.06 3.06 0 00-1.13-2.58c-11.67-8.81-25.25-11.72-39.56-9.48-10.48 1.68-17 8.85-21.53 17.93-4.39 8.74-5.18 18-4.17 27.57 1.69 15.47 10.14 29.25 27.39 32.5a21.73 21.73 0 016.65 2.8 6.14 6.14 0 013 7.18c-.79 2.91-2.93 3.92-5.63 4.37-6.2 1.12-11.39-1.23-16.35-4.26-3.71-2.24-7.21-4.93-11.15-7.62-.23.56-.34.9-.57 1-1.91 7.84-3.83 15.69-5.63 23.53a4.23 4.23 0 001.24 2.92 52.69 52.69 0 0018.71 12.1c15.32 5.83 31.89 2.47 41.92-8.4 7.22-8 9.92-17.38 10.26-27.91.75-18.6-8.19-37.2-30.62-40.68zM590.72 51.94c-.05.06-.06.13 0 0z"/><path d="M569.31 57.88a15.62 15.62 0 01-5.64-2.46c-2.48-1.57-3.27-5-2.14-8s3.27-3.7 6.09-3.36c2.48.34 5 .34 7.21 1.12 5.29 2 10.48 4.48 15.88 6.72 0-.08.08-.19.13-.33 1.91-8.3 3.83-16.48 5.63-24.66a3 3 0 00-1.13-2.58c-11.72-8.85-25.24-11.76-39.56-9.52-10.48 1.68-17 8.85-21.52 17.93-4.4 8.74-5.19 18-4.18 27.57 1.7 15.47 10.15 29.25 27.39 32.5a21.41 21.41 0 016.65 2.81 6.13 6.13 0 013 7.17c-.79 2.91-2.94 3.92-5.64 4.37-6.2 1.12-11.38-1.23-16.34-4.26-3.67-2.2-7.14-4.9-11.14-7.58-.23.56-.34.9-.56 1-1.92 7.84-3.84 15.69-5.64 23.53a4.26 4.26 0 001.24 2.92 52.69 52.69 0 0018.71 12.1c15.33 5.83 31.9 2.47 41.93-8.4 7.21-8 9.92-17.37 10.25-27.91.71-18.56-8.19-37.2-30.62-40.68zM386.93 137.41h58.61v-30.26h-28.18V92.58h28.18V62.31h-28.18V47.74h28.18V16.36h-58.5l-.11 121.05zM355.37 16.36h-29.31v121.05h56.36v-31.38h-27.05V16.36zM137.84 16.36h30.43V137.4h-30.43zM245.59 75.88c3.95-13.56 4.06-27.13-.79-40.46-3.8-10.65-12.8-19.06-26.94-19.06h-40.57v121.05h29.87v-34.19l18.59 34.19h28.18s-16.12-40.46-19.39-48a22.38 22.38 0 0011.05-13.53zM217.86 59c-.67 3.7-3.38 4.49-12.39 4.49V46.63c9 0 11.83 1.45 12.39 4.48a22.44 22.44 0 010 7.89z"/></symbol></svg>