<svg xmlns="http://www.w3.org/2000/svg" xmlns:xlink="http://www.w3.org/1999/xlink" style="display:none"><symbol id="bottom-arrow-s"><path d="M14.44.29a1 1 0 00-1.44 0L7.36 5.95 1.71.29A1 1 0 00.29 1.71l6.37 6.36a1 1 0 001.41 0l6.36-6.36a1 1 0 00.01-1.42z"/></symbol><symbol id="left-arrow-s"><path d="M2.41 7.36l5.66-5.65A1 1 0 006.66.29L.29 6.66a1 1 0 000 1.41l6.36 6.36A1 1 0 008.07 13z"/></symbol><symbol id="left-arrow"><path d="M13 6.36H3.41l4.66-4.65A1 1 0 106.66.29L.29 6.66a1 1 0 000 1.41l6.36 6.36A1 1 0 008.07 13L3.41 8.36H13z"/></symbol><symbol id="right-arrow-s"><path d="M8.07 6.66L1.71.29A1 1 0 00.29 1.71l5.66 5.65L.29 13a1 1 0 001.41 1.41l6.37-6.34a1 1 0 000-1.41z"/></symbol><symbol id="right-arrow"><path d="M12.71 6.66L6.34.29a1 1 0 00-1.41 1.42l4.66 4.65H0v2h9.59L4.93 13a1 1 0 001.41 1.41l6.36-6.36a1 1 0 00.01-1.39z"/></symbol><symbol id="top-arrow-s"><path fill="#1d1c1b" d="M14.44 6.66L8.07.29a1 1 0 00-1.41 0L.29 6.66a1 1 0 101.42 1.41l5.65-5.66L13 8.07a1 1 0 101.41-1.41z"/></symbol></svg>