<svg xmlns="http://www.w3.org/2000/svg" viewBox="0 0 600 224.4"><path d="M258.4 157.3h58.7V126h-29v-12.6h29V81.7h-28.9v-14h28.9V36.4h-58.7zM104.5 20c-2.4 0-3.2.8-3.5 3a2769.6 2769.6 0 01-10.3 58.5l-1-6.6c-3-17.6-6.3-35-9.3-52.7-.3-1.5-.8-2.3-2.6-2.3H55.3a2.4 2.4 0 00-2.6 2 2.3 2.3 0 000 .2l-7.2 39.7c-1 6.5-2.3 13-3.5 19.4A117.4 117.4 0 0139.3 69L31 22.6c-.3-1.8-1-2.7-3.2-2.7-8.5.2-17 .1-25.4.1a17.1 17.1 0 00-2.4.2l.2 2.2C2.2 32 4 41.9 6 51.6c5.3 27.6 10.4 55.2 16 82.7l6 22.5 27.1.1 3.8-19.7 1-5.5.6-4.8c-3.5-.8-6.6-1.2-9.6-2.1-4.8-1.7-6.3-6-3.7-10.8-.3 3.1-.1 6 2.4 7.9 3.1 2.4 6.5 1.4 10 .5 2.8-.7 2-3.1 2.7-5l.1-1L66.1 95c1.5 7.7 2.7 14.7 4 22.3l3.8-2.3a108.5 108.5 0 0029.6-29.8 79 79 0 008.7-17.5c2.4-7-1.9-11.3-9.3-10h-.5c7-3.4 11-1.8 12.3 5.6a63.5 63.5 0 01.7 16A51.3 51.3 0 0195 116.7c-1.8 1.3-4.6 2.3-5 4-.5 1.9 1 4.2 1.8 6.5l3.3 9.7.1.4 8.7 20h1.1c7.4-39.2 19.5-98 26.9-137l-3.2-.2h-24.3zm-20.9 83.6c-.4.1-1.2-.4-1.7-.9L65.4 84a83.4 83.4 0 00-6.7-7.4c-1-.9-2.7-1-4.1-1.3-2.7-.7-4-2.4-3.8-5.3s1.7-4.4 4.5-4.4a5.3 5.3 0 015.6 5 8 8 0 001.8 4.5c7 8.3 14.3 16.4 21.3 24.6a4.5 4.5 0 011.4 2.5c0 .4-1 1.2-1.8 1.4z" fill="#0072bb"/><path d="M78.8 134.6c-.6-3.4-1.6-6.8-2.4-10.1-4.8 1.2-4.8 1.2-4.2 5.5l.7 3.9 5.2 23.2h5.6L79 135.2l-.1-.6zM513 73.1c0 .1 0 .2 0 0zM491.6 79a15.8 15.8 0 01-5.6-2.4c-2.5-1.6-3.3-5-2.1-8s3.2-3.7 6-3.3c2.5.3 5 .3 7.3 1 5.3 2 10.4 4.6 15.8 6.8l.2-.3 5.6-24.7a3 3 0 00-1.1-2.6A50.7 50.7 0 00478 36c-10.5 1.7-17 8.9-21.5 18-4.4 8.7-5.2 18-4.2 27.5 1.7 15.5 10.2 29.3 27.4 32.5a21.8 21.8 0 016.7 2.8 6.1 6.1 0 013 7.2c-.8 3-3 4-5.7 4.4-6.2 1.1-11.4-1.2-16.3-4.3-3.7-2.2-7.2-4.9-11.2-7.6-.2.6-.3 1-.6 1l-5.6 23.5a4.2 4.2 0 001.3 3 52.6 52.6 0 0018.7 12 38.2 38.2 0 0041.9-8.3c7.2-8 10-17.4 10.3-28 .7-18.5-8.2-37.1-30.7-40.6zM590.7 71.8c0 .1 0 .2 0 0zM569.3 77.8a15.6 15.6 0 01-5.6-2.5c-2.5-1.5-3.3-5-2.2-8s3.3-3.7 6.1-3.3c2.5.3 5 .3 7.2 1 5.3 2 10.5 4.6 16 6.8a1.7 1.7 0 010-.3l5.7-24.7a3 3 0 00-1.2-2.6 50.6 50.6 0 00-39.5-9.5c-10.5 1.7-17 8.9-21.5 18-4.4 8.7-5.2 18-4.2 27.5 1.7 15.5 10.1 29.3 27.4 32.5a21.2 21.2 0 016.6 2.8 6.1 6.1 0 013 7.2c-.8 3-3 4-5.6 4.4-6.2 1-11.4-1.3-16.4-4.3-3.6-2.2-7.1-4.9-11.1-7.6-.2.6-.3 1-.6 1l-5.6 23.6a4.3 4.3 0 001.2 2.9 52.6 52.6 0 0018.8 12 38.2 38.2 0 0041.9-8.3c7.2-8 9.9-17.4 10.2-28 .7-18.5-8.2-37.1-30.6-40.6zM387 157.3h58.5v-30.2h-28.1v-14.6h28.1V82.2h-28.1V67.7h28.1V36.3H387v121zM355.4 36.3H326v121h56.3V126h-27V36.3zM137.8 36.3h30.4v121h-30.4zM245.6 95.8c4-13.6 4-27.1-.8-40.5a27.4 27.4 0 00-27-19h-40.5v121h29.9v-34.2l18.6 34.2h28.1s-16-40.4-19.4-48a22.4 22.4 0 0011-13.5zm-27.7-16.9c-.7 3.7-3.4 4.5-12.4 4.5V66.5c9 0 11.8 1.5 12.4 4.5a22.3 22.3 0 010 8z" fill="#0072bb"/><path fill="none" d="M130 208v-59.2l-9.3 28 9.2 31.2z"/><path d="M153.6 155v17.3a9 9 0 004.7-.9q1.4-1 1.4-6V161c0-2.4-.4-4-1.3-4.8s-2.5-1.1-4.8-1.1zM23 187.7c0 9 .1 14.7.5 17.6a20 20 0 003.7 9.4 22 22 0 009.4 7 34.3 34.3 0 0013.6 2.7 31.8 31.8 0 0012.3-2.2 21.3 21.3 0 008.9-6.8 20.5 20.5 0 004-8.8 92 92 0 00.6-13v-55.2H23zm3.3-45.9h20.3v58.1a24.2 24.2 0 00.5 6.5 2.2 2.2 0 002.3 1.4 2.3 2.3 0 002.4-1.5q.6-1.6.6-7.4v-57.1h20.2v51.8a90.8 90.8 0 01-.5 12.5 17 17 0 01-3.4 7.3 17.8 17.8 0 01-7.5 5.6 28.2 28.2 0 01-11 2 31 31 0 01-12.3-2.3 18.5 18.5 0 01-7.9-6 16.4 16.4 0 01-3.1-7.8 169.8 169.8 0 01-.6-17.2zM341.7 200.4v-10.2h12.7v-21.5h-12.7v-8h13.5v-22.3h-40.5v84.3h41.9v-22.3zm11.5 19h-35v-77.6h33.7v15.5h-13.6V172H351v14.8h-12.6v17h14.9zM289.6 155.3l-5.5-16.9h-22.8v84.3h23.8v-15.4l4.6 15.4h23.7v-84.3h-23.8zm3.4-13.5h17v77.5h-17.8l-10.5-35.2v35.3h-17v-77.6h17l11.3 35z"/><path d="M233 196.8l-8.7-58.4H189l-7.2 54.7a31 31 0 00-.6-6.4 14.7 14.7 0 00-3.2-6 10.1 10.1 0 00-1.3-1.3 9.9 9.9 0 002.2-2.3c2-2.7 3-7.2 3-14.2 0-7.3-1.4-12.7-4-16.3a16.6 16.6 0 00-10.3-7c-3.6-.9-10.2-1.2-20.1-1.2h-40.4l-3.1 10.3v-10.3H77v84.3h27v-8.5l2.1 8.6H206l1.2-14h1l1 14h51v-84.4H233zm-124.1 22.5l-8.2-33.2v33.3H80.5v-77.6h20.2v30.1l9-30.1h19l-11.6 35.1 12.7 42.5zM130 208l-9.3-31 9.2-28.2zm48.6 11.3h-18.9v-25.7q0-6.3-1-7.7t-5.1-1.5v35h-20.3v-77.6h14.4q14.3 0 19.3 1.1a13.3 13.3 0 018.3 5.7q3.2 4.5 3.2 14.4 0 9-2.3 12.2c-1.5 2-4.5 3.3-8.9 3.7 4 1 6.7 2.3 8.1 4a11.7 11.7 0 012.6 4.6c.3 1.4.5 5.2.5 11.4zm33.7 0l-1-13.9H204l-1.1 14h-21l10.3-77.6h29.2l11.6 77.6zm24.1-77.5h20.3v77.5h-20.3z"/><path d="M203.7 191.7h7q-1.6-13.2-3-32.6-3.2 22.3-4 32.6z"/><path fill="#ffec01" d="M338.3 186.8H351V172h-12.7v-14.7H352v-15.5H318v77.6h35v-15.6h-14.8v-17zM236.4 141.8h20.2v77.6h-20.2zM264.8 141.8v77.6h16.9V184l10.5 35.3h17.7v-77.6H293v35l-11.3-35h-17zM192 141.8l-10.2 77.6h21l1.1-14h7.3l1 14h20.7l-11.6-77.6zm11.7 49.9q.8-10.3 3.9-32.6 1.5 19.4 3 32.6zM128.7 141.8h-19l-9 30.1v-30.1H80.5v77.6h20.2V186l8.2 33.3h20.9L117 176.8l11.6-35zM30 212.7a18.6 18.6 0 008 6 31 31 0 0012.2 2.3 28.3 28.3 0 0011-2 17.7 17.7 0 007.4-5.6A17 17 0 0072 206a89.3 89.3 0 00.6-12.4v-51.8H52.4v57.1q0 5.8-.6 7.4a2.3 2.3 0 01-2.5 1.5 2.2 2.2 0 01-2.2-1.4 23.8 23.8 0 01-.6-6.5v-58.1H26.3v45.9q0 13.1.5 17.2a16.5 16.5 0 003.1 7.8zM175.4 182.8c-1.3-1.6-4-3-8-4q6.6-.6 8.9-3.7t2.2-12.2q0-9.9-3.2-14.4a13.3 13.3 0 00-8.3-5.6q-5-1.1-19.4-1.1h-14.3v77.6h20.3v-35c2.7 0 4.5.5 5.1 1.5s1 3.5 1 7.7v25.7h18.8V199q0-9.4-.5-11.4a11.7 11.7 0 00-2.6-4.7zm-15.7-17.5q0 5.1-1.4 6.1a9 9 0 01-4.7 1V155c2.3 0 4 .3 4.8 1s1.3 2.5 1.3 5z"/><path d="M161.2 3l4 5.7L161 15h3.1l3.8-5.7V15h2.7V9.2l3.7 5.7h3.1l-4.2-6.2 4-5.6h-3l-3.6 5.1V3.1h-2.7v5.1l-3.6-5.1zm24 9l4-9h-2.8L184 8.9l-3.3-5.7h-3l5 8.4-.1.4a.9.9 0 01-1 .5 1.2 1.2 0 01-.8-.3l-.9 2.3a1.2 1.2 0 00.3.2 2.5 2.5 0 00.5.2 3.6 3.6 0 00.5 0 2.4 2.4 0 00.5 0 3 3 0 002-.6 5.8 5.8 0 001.4-2.1zm5.6 3h2.7v-4H194.8a4.8 4.8 0 001.9-.4 4 4 0 002.2-2.1 3.8 3.8 0 00.3-1.6 4.3 4.3 0 00-.3-1.4 3.4 3.4 0 00-.8-1.3 4 4 0 00-1.4-.9 6.8 6.8 0 00-2.3-.3h-3.6zm3.9-9.5a2.2 2.2 0 011.2.3 1.1 1.1 0 01.4 1 1.5 1.5 0 01-.1.8 1.2 1.2 0 01-.4.4 2 2 0 01-.5.3 2 2 0 01-.6 0h-1.2V5.5h1.2zm13.7 4.6V15h2.7V3.1h-2.7v4.5H204V3h-2.7v11.8h2.7v-4.8zm9.1-7l-4.9 11.8h2.7l1-2.5h4.7l1 2.5h2.9l-5-11.8zm-.2 6.8l1.4-3.4L220 10zM233 5.6v9.3h2.7V3.1H228l-.2 2.3c0 1.1-.2 2-.3 2.8a16.5 16.5 0 01-.3 2 6 6 0 01-.5 1.1 2.5 2.5 0 01-.4.7.8.8 0 01-.5.2 2.2 2.2 0 01-.5 0v2.7a4.5 4.5 0 001.8 0 2.5 2.5 0 001.4-1 6.3 6.3 0 001-2.2 27.4 27.4 0 00.7-3.8l.3-2.3zm8.3 3.4a6.5 6.5 0 00.5 2.5 5.5 5.5 0 001.3 2 5.8 5.8 0 002 1.2 7 7 0 002.5.4 6.7 6.7 0 002.4-.5 6 6 0 002-1.2 5.8 5.8 0 001.4-2 6.2 6.2 0 00.4-2.4 6.5 6.5 0 00-.4-2.6 5.6 5.6 0 00-1.4-1.9 5.9 5.9 0 00-2-1.2 7 7 0 00-2.5-.4 6.8 6.8 0 00-2.6.5 5.9 5.9 0 00-3.2 3.2 6.3 6.3 0 00-.5 2.4zm2.8 0a4 4 0 01.3-1.5 3.3 3.3 0 01.7-1.1 2.9 2.9 0 011-.7 3.6 3.6 0 011.4-.3 3.5 3.5 0 011.4.3 2.9 2.9 0 011 .7 3.4 3.4 0 01.8 1.1 4 4 0 01.2 1.5 4 4 0 01-.2 1.4 3.4 3.4 0 01-.7 1.1 3 3 0 01-1 .8 3.7 3.7 0 01-1.5.3 3.2 3.2 0 01-1.3-.3 3.2 3.2 0 01-1.1-.8 3.6 3.6 0 01-1-2.5zm15.3-6v12h3.4a5 5 0 003.3-1 3.6 3.6 0 001.2-3 4 4 0 00-.3-1.5 3.3 3.3 0 00-.7-1.2 3.4 3.4 0 00-1.3-.7 5 5 0 00-1.6-.2h-.7-.6V5.6h4.4V3.1zm3.9 7a1.2 1.2 0 011 .3 1.5 1.5 0 01.3 1 1.3 1.3 0 01-.3.8 1.5 1.5 0 01-1.1.4 3.4 3.4 0 01-.5 0h-.5V10a6.6 6.6 0 011 0zm6.5-7v12h7.2v-2.6h-4.5v-2.2h3.8V7.7h-3.8V5.6h4.3V3.1zm19 10.7l-1-2a4.5 4.5 0 01-1.3.7 4.6 4.6 0 01-1.3.2 4 4 0 01-1.4-.3 3.3 3.3 0 01-1.2-.7 3.4 3.4 0 01-.7-1.2 4 4 0 01-.3-1.4 4.3 4.3 0 01.3-1.5 3.2 3.2 0 01.7-1.2 2.8 2.8 0 011-.6 3.7 3.7 0 011.3-.3 3.6 3.6 0 011.4.3 8.7 8.7 0 011 .5l1.2-2a4.3 4.3 0 00-1.5-1 6.2 6.2 0 00-2.1-.3 7 7 0 00-2.7.5 5.4 5.4 0 00-3.1 3.3 6.9 6.9 0 00-.4 2.3 6.7 6.7 0 00.4 2.6 5.9 5.9 0 001.3 1.9 5.5 5.5 0 002 1.2 7 7 0 002.5.5 7.7 7.7 0 001.2-.1 6.8 6.8 0 001-.3 4.5 4.5 0 001-.4 3.5 3.5 0 00.7-.6zm8.7-8.1v9.3h2.7V3.1h-9.6v11.8h2.7V5.6zm5.7 9.3h2.7v-4H307.2a4.8 4.8 0 001.9-.3 4 4 0 002.2-2.1 3.8 3.8 0 00.3-1.6 4.3 4.3 0 00-.3-1.4 3.4 3.4 0 00-.8-1.3 4 4 0 00-1.4-.9 6.8 6.8 0 00-2.3-.3h-3.6zm3.9-9.4a2.2 2.2 0 011.2.3 1.1 1.1 0 01.4 1 1.5 1.5 0 01-.1.8 1.2 1.2 0 01-.4.4 2 2 0 01-.5.3 2 2 0 01-.6 0H306V5.5h1.2zM313 9a6.3 6.3 0 00.5 2.5 5.6 5.6 0 001.3 2 5.9 5.9 0 002 1.2 7 7 0 002.5.4 6.7 6.7 0 002.5-.5 6.2 6.2 0 002-1.2 6 6 0 001.2-2 6.2 6.2 0 00.5-2.4 6.5 6.5 0 00-.5-2.6 5.8 5.8 0 00-1.3-1.9 6 6 0 00-2-1.2 6.9 6.9 0 00-2.5-.4 6.7 6.7 0 00-2.6.5 5.7 5.7 0 00-2 1.3 5.8 5.8 0 00-1.2 2 6.1 6.1 0 00-.5 2.3zm2.8 0a4 4 0 01.2-1.5 3.4 3.4 0 01.7-1.1 3 3 0 011-.7 3.7 3.7 0 011.5-.3 3.5 3.5 0 011.3.3 3 3 0 011 .7 3.3 3.3 0 01.8 1.1 4 4 0 01.2 1.5 4.3 4.3 0 01-.2 1.4 3.4 3.4 0 01-.6 1.1 3.2 3.2 0 01-1.1.8 3.8 3.8 0 01-1.5.3 3.2 3.2 0 01-1.3-.3 3.3 3.3 0 01-1-.7 3.6 3.6 0 01-.8-1.2 3.5 3.5 0 01-.3-1.4zm12-6v11.8l.6.1h2.7a6.6 6.6 0 001.8-.2 4 4 0 001.4-.7 3 3 0 001-1.1 3.7 3.7 0 00.4-1.6 3 3 0 00-.2-1 3 3 0 00-.4-.8 2.6 2.6 0 00-.5-.6 3 3 0 00-.6-.3 3 3 0 001-1 3.2 3.2 0 00.2-1.7 3 3 0 00-.2-1.1 2.4 2.4 0 00-.7-1 3.6 3.6 0 00-1.2-.6 6.5 6.5 0 00-1.9-.2h-3.5zm2.6 7h1a1.9 1.9 0 011 .3 1 1 0 01.4.8 1.1 1.1 0 01-.4 1 1.7 1.7 0 01-1.1.3h-1zm.9-4.5a1.6 1.6 0 01.8.3.9.9 0 01.5.8 1 1 0 01-.4.9 1.5 1.5 0 01-.9.2h-.9v-2h.4a2.6 2.6 0 01.4 0zm6 3.4a6.5 6.5 0 00.5 2.6 5.6 5.6 0 001.3 1.9 5.9 5.9 0 002 1.2 6.9 6.9 0 002.5.4 6.7 6.7 0 002.5-.4 6.2 6.2 0 002-1.3 6 6 0 001.3-2 6 6 0 00.5-2.4 6.3 6.3 0 00-.5-2.5 5.7 5.7 0 00-1.4-1.9 6 6 0 00-2-1.2 7 7 0 00-2.5-.4 6.7 6.7 0 00-2.5.5 5.7 5.7 0 00-2 1.3 6 6 0 00-1.3 2 6.3 6.3 0 00-.5 2.3zm2.9 0a4 4 0 01.2-1.4 3.4 3.4 0 01.7-1.2 2.9 2.9 0 011.1-.7 3.6 3.6 0 011.4-.3 3.5 3.5 0 011.3.3 2.8 2.8 0 011.1.7 3.3 3.3 0 01.7 1.2 4 4 0 01.3 1.4 4.3 4.3 0 01-.3 1.4 3.4 3.4 0 01-.6 1.2 3.1 3.1 0 01-1 .7 3.7 3.7 0 01-1.5.3 3.3 3.3 0 01-2.5-1 3.9 3.9 0 01-.7-1.1 3.7 3.7 0 01-.3-1.4zm10.3 3.4v4.6h2.5v-2h7.3v2h2.5v-4.5h-1.6V3h-7.7v2.3a23.3 23.3 0 01-.3 2.6 21 21 0 01-.5 2.1 9.3 9.3 0 01-.5 1.5 4.8 4.8 0 01-.5.8zm5.4-4.7l.2-2h2.4v6.7h-3.8a3.4 3.4 0 00.3-.7 8.3 8.3 0 00.4-1.1 20.2 20.2 0 00.5-3zm15.8 2.5v4.8h2.7V3.1h-2.7v4.5h-4.3V3h-2.7v11.8h2.7v-4.8zm4.9-1.2a6.5 6.5 0 00.5 2.6 5.6 5.6 0 001.3 1.9 5.9 5.9 0 002 1.2 7 7 0 002.5.4 6.7 6.7 0 002.4-.4 6.2 6.2 0 002-1.3 5.8 5.8 0 001.4-2A6.2 6.2 0 00389 9a6.5 6.5 0 00-.4-2.5 5.6 5.6 0 00-1.4-2 6 6 0 00-2-1.2 6.9 6.9 0 00-2.5-.3 6.7 6.7 0 00-2.6.5 5.7 5.7 0 00-2 1.3 5.8 5.8 0 00-1.2 1.9 6.1 6.1 0 00-.5 2.4zm2.8 0a4.3 4.3 0 01.3-1.5 3.4 3.4 0 01.7-1 3 3 0 011-.8 3.7 3.7 0 011.4-.3 3.6 3.6 0 011.4.3 3 3 0 011 .7 3.4 3.4 0 01.8 1.1 4.3 4.3 0 01.2 1.5 4.3 4.3 0 01-.2 1.4 3.4 3.4 0 01-.7 1.2 3.2 3.2 0 01-1 .7 3.7 3.7 0 01-1.5.3 3.2 3.2 0 01-1.3-.3 3.3 3.3 0 01-1.1-.7 3.6 3.6 0 01-.7-1.2 3.5 3.5 0 01-.3-1.4zm12 6h2.3l5.2-7.3v7.3h2.7V3.1h-2.4l-5.2 7.3V3.1h-2.7zM395.6 0h-2.5a2.4 2.4 0 00.9 2 4.2 4.2 0 002.6.8 5 5 0 001.5-.2 3.4 3.4 0 001.1-.6 2.5 2.5 0 00.7-.9 2.3 2.3 0 00.2-1.1h-2.5c0 .3 0 .6-.3.7a1.5 1.5 0 01-.7.1 1.4 1.4 0 01-.8-.1.8.8 0 01-.3-.7zM408 15h2.4l5.2-7.4v7.3h2.7V3.1H416l-5.2 7.3V3.1H408zm16.8-12v12h2.7V7.3l3.2 4.6h.4l3.3-4.6v7.5h2.7V3.1h-2.5L431 8l-3.6-5zm14.5 6a6.5 6.5 0 00.5 2.5 5.6 5.6 0 001.3 2 5.9 5.9 0 002 1.2 7 7 0 002.5.4 6.7 6.7 0 002.5-.5 6.2 6.2 0 002-1.2 5.8 5.8 0 001.3-2 6.2 6.2 0 00.5-2.4 6.5 6.5 0 00-.5-2.6 5.6 5.6 0 00-1.4-1.9 6 6 0 00-2-1.2 6.9 6.9 0 00-2.4-.4 6.7 6.7 0 00-2.6.5 5.7 5.7 0 00-2 1.3 5.8 5.8 0 00-1.3 2 6.1 6.1 0 00-.4 2.3zm2.8 0a4.3 4.3 0 01.3-1.5 3.4 3.4 0 01.7-1.1 3 3 0 011-.7 3.7 3.7 0 011.5-.3 3.6 3.6 0 011.3.3 3 3 0 011 .7 3.4 3.4 0 01.8 1.1 4.3 4.3 0 01.2 1.5 4.3 4.3 0 01-.2 1.4 3.4 3.4 0 01-.6 1.1 3.2 3.2 0 01-1.1.8 3.7 3.7 0 01-1.5.3 3.2 3.2 0 01-1.3-.3 3.3 3.3 0 01-1-.8 3.6 3.6 0 01-.8-1A3.5 3.5 0 01442 9zm12-6v12h3.3a5 5 0 003.4-1 3.6 3.6 0 001.2-3 3.9 3.9 0 00-.3-1.5 3.3 3.3 0 00-.8-1.1 3.5 3.5 0 00-1.2-.8 4.8 4.8 0 00-1.6-.2h-1.3V5.6h4.4V3.1zm3.8 7a1.3 1.3 0 011 .3 1.5 1.5 0 01.3 1 1.3 1.3 0 01-.3.8 1.5 1.5 0 01-1.1.4 3.5 3.5 0 01-.5 0h-.6V10a6.7 6.7 0 011.2 0zm6.6 5h2.4l5.2-7.4v7.3h2.7V3.1h-2.4l-5.2 7.3V3.1h-2.7zm20-9.4V15h2.7V3.1h-7.8l-.2 2.3c0 1.1-.2 2-.3 2.8a16.7 16.7 0 01-.3 2 6.8 6.8 0 01-.5 1.1 2.5 2.5 0 01-.4.7.8.8 0 01-.5.2 2.2 2.2 0 01-.5 0v2.7a4.5 4.5 0 001.8 0 2.5 2.5 0 001.4-1 6.3 6.3 0 001-2.2 27.4 27.4 0 00.7-3.8l.2-2.3zm9.3 3.7a3.1 3.1 0 01.7 0 1.6 1.6 0 01.6.3 1.3 1.3 0 01.4.5 1.6 1.6 0 01.1.7 1.5 1.5 0 01-.5 1.3 2.1 2.1 0 01-1.3.3 2 2 0 01-.4 0h-.4v-3h.8zm-.8-2.5V3.1h-2.7v11.8h3.2a7.1 7.1 0 002.1-.3 4.3 4.3 0 001.6-.9 3.5 3.5 0 001-1.3 4.4 4.4 0 00.3-1.7 4.7 4.7 0 00-.3-1.6 3.2 3.2 0 00-.8-1.3A3.9 3.9 0 00496 7a6.5 6.5 0 00-2-.3h-1zm14.7 3.3V15h2.7V3.1h-2.7v4.5h-4.3V3h-2.7v11.8h2.7v-4.8zm4.9-1.1a6.5 6.5 0 00.4 2.5 5.6 5.6 0 001.3 2 5.9 5.9 0 002 1.2 7 7 0 002.5.4 6.7 6.7 0 002.5-.5 6.2 6.2 0 002-1.2 5.8 5.8 0 001.3-2A6.2 6.2 0 00525 9a6.5 6.5 0 00-.5-2.6 5.6 5.6 0 00-1.3-1.9 6 6 0 00-2-1.2 6.9 6.9 0 00-2.4-.4 6.7 6.7 0 00-2.6.5 5.7 5.7 0 00-2 1.3 5.8 5.8 0 00-1.2 1.9 6.1 6.1 0 00-.5 2.4zm2.8 0a4.3 4.3 0 01.2-1.5 3.4 3.4 0 01.8-1.1 3 3 0 011-.8 3.7 3.7 0 011.4-.2 3.6 3.6 0 011.3.2 3 3 0 011.1.8 3.4 3.4 0 01.7 1.1 4.3 4.3 0 01.3 1.5 4.3 4.3 0 01-.2 1.4 3.4 3.4 0 01-.7 1.1 3.2 3.2 0 01-1 .8 3.7 3.7 0 01-1.5.3 3.2 3.2 0 01-1.4-.3 3.3 3.3 0 01-1-.8 3.6 3.6 0 01-.8-1 3.5 3.5 0 01-.2-1.5zm12 6h2.3l5.2-7.4v7.3h2.7V3.1h-2.4l-5.2 7.3V3.1h-2.7zm4.3-15h-2.5a2.4 2.4 0 00.9 2 4.2 4.2 0 002.6.8 5 5 0 001.5-.2 3.4 3.4 0 001-.6 2.5 2.5 0 00.8-.9 2.2 2.2 0 00.2-1.1h-2.5c0 .3 0 .6-.3.7a1.5 1.5 0 01-.7.1 1.4 1.4 0 01-.8-.1.8.8 0 01-.2-.7zm21.5 13.7l-1-2a4.5 4.5 0 01-1.2.7 4.6 4.6 0 01-1.3.2 4 4 0 01-1.5-.3 3.2 3.2 0 01-1.1-.7 3.4 3.4 0 01-.8-1.2 4 4 0 01-.2-1.4 4.3 4.3 0 01.3-1.5 3.2 3.2 0 01.6-1.2 2.9 2.9 0 011-.6 4.1 4.1 0 012.7 0 8.7 8.7 0 011 .5l1.2-2a4.2 4.2 0 00-1.4-1 6.1 6.1 0 00-2.1-.3 7 7 0 00-2.7.5 5.5 5.5 0 00-3.1 3.3 6.9 6.9 0 00-.4 2.3 6.7 6.7 0 00.4 2.6 5.9 5.9 0 001.3 1.9 5.5 5.5 0 002 1.2 7 7 0 002.5.5 7.7 7.7 0 001.2-.1 6.8 6.8 0 001-.3 4.5 4.5 0 001-.4 3.5 3.5 0 00.6-.6zm1.9-10.6v11.8h3.4a6.6 6.6 0 001.7-.2 4.2 4.2 0 001.5-.7 3 3 0 001-1.1 3.7 3.7 0 00.3-1.6 3.3 3.3 0 00-.2-1 3 3 0 00-.3-.8 2.2 2.2 0 00-.6-.6 2.8 2.8 0 00-.6-.3 3 3 0 001-1 3.2 3.2 0 00.3-1.7 3 3 0 00-.2-1.1 2.5 2.5 0 00-.7-1 3.5 3.5 0 00-1.3-.6 6.4 6.4 0 00-1.8-.2h-3.5zm2.6 7h1a1.9 1.9 0 011 .3 1 1 0 01.5.8 1.1 1.1 0 01-.4.9 1.8 1.8 0 01-1.2.3H557.7zm.9-4.6a1.6 1.6 0 01.9.3.9.9 0 01.4.8 1 1 0 01-.4.9 1.5 1.5 0 01-.9.2h-.9v-2h.4a2.6 2.6 0 01.5 0zm12 5.6v3.8h2.7V3.1H570a6.7 6.7 0 00-2.3.3 4.6 4.6 0 00-1.6 1 3.4 3.4 0 00-.9 1.3 4.8 4.8 0 00-.2 1.7 3.5 3.5 0 00.5 2 4 4 0 001.3 1.2l-2.8 4.3h3l2.3-3.8zm0-2.6h-1.4a1.8 1.8 0 01-.9-.4 1.3 1.3 0 01-.4-1 1.4 1.4 0 01.5-1.1 1.8 1.8 0 011.2-.5h.8a1 1 0 01.2 0zm9 6.6a5 5 0 003-1 3.3 3.3 0 001-1.2 3 3 0 00.3-1.4 3.3 3.3 0 00-.5-1.8 2.5 2.5 0 00-1.5-1 3.1 3.1 0 001.1-1.2 3 3 0 00.3-1.3 3.4 3.4 0 00-.2-1.4 2.7 2.7 0 00-.8-1 3.5 3.5 0 00-1.1-.7 4.5 4.5 0 00-1.5-.2 5 5 0 00-2.3.6 4.5 4.5 0 00-1.7 1.4l1.6 1.8a3.2 3.2 0 011-1 2.3 2.3 0 011-.3 1.4 1.4 0 011 .3 1 1 0 01.4.8.9.9 0 01-.5.8 2 2 0 01-1 .3h-1V10h1.1a2.3 2.3 0 011.4.3 1 1 0 01.4 1 1.2 1.2 0 01-.1.5 1.2 1.2 0 01-.4.4 1.4 1.4 0 01-.5.2 3 3 0 01-.6 0 2.7 2.7 0 01-1.4-.4 5.3 5.3 0 01-1.3-1l-1.5 1.9a4.7 4.7 0 00.6.7 4 4 0 00.9.7 5.3 5.3 0 001.2.5 5.4 5.4 0 001.6.2zm6.8-.2h2.3l5.3-7.4V15h2.7V3.1h-2.4l-5.2 7.3V3.1h-2.7z"/></svg>