<svg xmlns="http://www.w3.org/2000/svg" viewBox="0 0 600 139" fill="#ffffff"><path d="M258.44,137.41h58.61V106.14h-29V93.47h29V61.76c-7,.11-28.85,0-28.85,0V47.86h28.85V16.36H258.44Z" /><path d="M104.48.11C102.11.11,101.33.9,101,3c-2,12-4.06,23.87-6.2,35.75-1.35,7.73-2.7,15.34-4.06,23v0c-.11,0-.22-.12,0-.12-.34-2.24-.79-4.37-1.13-6.61-3-17.6-6.2-35.08-9.24-52.68C80.14.78,79.57,0,77.77,0c-7.44.11-15,.11-22.43,0a2.36,2.36,0,0,0-2.7,2.24L45.53,41.92c-1.12,6.5-2.36,12.89-3.49,19.39A118.26,118.26,0,0,1,39.34,49C36.52,33.51,33.7,18.16,31,2.69,30.66.9,30,0,27.84,0c-8.57.22-17,.11-25.47.11A17.36,17.36,0,0,0,0,.34c.11.89.11,1.57.23,2.13C2.14,12.22,3.94,22,5.86,31.72c5.3,27.57,10.48,55.14,16,82.71.19,1,6.08,22.42,6.08,22.42L55,137l3.83-19.69c.34-2.13.68-3.82.91-5.5s.45-3.25.67-4.81h0c-3.49-.79-6.65-1.24-9.58-2.13-4.84-1.69-6.31-6.06-3.72-10.76-.34,3.13-.11,5.94,2.37,7.84,3.16,2.47,6.54,1.46,10,.56,2.82-.67,2-3.14,2.71-4.93.11-.22,0-.67.11-1,1.24-7.06,2.48-14,3.83-21.63,1.47,7.73,2.71,14.79,4.06,22.3,1.58-1,2.7-1.57,3.72-2.24a108.51,108.51,0,0,0,29.64-29.81,78.94,78.94,0,0,0,8.68-17.48c2.37-7.07-1.92-11.32-9.36-10-.11,0-.33-.11-.45-.11,7-3.36,11-1.68,12.29,5.71a63.4,63.4,0,0,1,.67,16c-1.57,15.13-7.77,28-20.28,37.44-1.81,1.34-4.62,2.35-5.08,4-.45,1.91,1.13,4.26,1.92,6.5,1,3.15,2.07,6.3,3.27,9.76l.11.33L104,137.4h1.13c7.32-39.23,19.5-98,26.82-137.07-1.35,0-2.25-.12-3.15-.12C120.71.22,112.6.22,104.48.11ZM83.63,83.72c-.45.11-1.24-.45-1.69-.89-5.52-6.17-11-12.44-16.57-18.72h0a82.9,82.9,0,0,0-6.65-7.4c-1-.89-2.7-1-4.17-1.34-2.7-.68-3.94-2.36-3.72-5.27s1.69-4.37,4.51-4.37a5.28,5.28,0,0,1,5.52,5,8,8,0,0,0,1.81,4.48C69.77,63.44,77,71.62,84,79.8a4.5,4.5,0,0,1,1.35,2.47C85.32,82.71,84.31,83.5,83.63,83.72Z" /><path d="M78.78,114.66c-.56-3.37-1.57-6.73-2.36-10.09-4.85,1.23-4.85,1.23-4.17,5.49.22,1.23.45,2.58.67,3.92l5.19,23.23,5.63,0-4.81-21.91A6.22,6.22,0,0,1,78.78,114.66Z" /><path d="M513.05,53.23h0C513,53.33,513,53.36,513.05,53.23Z" /><path d="M491.63,59.17A15.65,15.65,0,0,1,486,56.71c-2.48-1.57-3.27-5-2.14-8s3.27-3.7,6.08-3.36c2.48.34,5,.34,7.22,1.12,5.29,2,10.47,4.48,15.88,6.72l.12-.33c1.92-8.3,3.83-16.48,5.64-24.66a3.06,3.06,0,0,0-1.13-2.58C506,16.81,492.42,13.9,478.11,16.14c-10.48,1.68-17,8.85-21.53,17.93-4.39,8.74-5.18,18-4.17,27.57,1.69,15.47,10.14,29.25,27.39,32.5a21.73,21.73,0,0,1,6.65,2.8,6.14,6.14,0,0,1,3,7.18c-.79,2.91-2.93,3.92-5.63,4.37-6.2,1.12-11.39-1.23-16.35-4.26-3.71-2.24-7.21-4.93-11.15-7.62-.23.56-.34.9-.57,1-1.91,7.84-3.83,15.69-5.63,23.53a4.23,4.23,0,0,0,1.24,2.92,52.69,52.69,0,0,0,18.71,12.1c15.32,5.83,31.89,2.47,41.92-8.4,7.22-8,9.92-17.38,10.26-27.91C523,81.25,514.06,62.65,491.63,59.17Z" /><path d="M590.72,51.94h0C590.67,52,590.66,52.07,590.72,51.94Z" /><path d="M569.31,57.88a15.62,15.62,0,0,1-5.64-2.46c-2.48-1.57-3.27-5-2.14-8s3.27-3.7,6.09-3.36c2.48.34,5,.34,7.21,1.12,5.29,2,10.48,4.48,15.88,6.72,0-.08.08-.19.13-.33,1.91-8.3,3.83-16.48,5.63-24.66a3,3,0,0,0-1.13-2.58c-11.72-8.85-25.24-11.76-39.56-9.52-10.48,1.68-17,8.85-21.52,17.93-4.4,8.74-5.19,18-4.18,27.57,1.7,15.47,10.15,29.25,27.39,32.5a21.41,21.41,0,0,1,6.65,2.81,6.13,6.13,0,0,1,3,7.17c-.79,2.91-2.94,3.92-5.64,4.37-6.2,1.12-11.38-1.23-16.34-4.26C541.47,100.7,538,98,534,95.32c-.23.56-.34.9-.56,1-1.92,7.84-3.84,15.69-5.64,23.53a4.26,4.26,0,0,0,1.24,2.92,52.69,52.69,0,0,0,18.71,12.1c15.33,5.83,31.9,2.47,41.93-8.4,7.21-8,9.92-17.37,10.25-27.91C600.64,80,591.74,61.36,569.31,57.88Z" /><polygon points="386.93 137.41 445.54 137.41 445.54 107.15 417.36 107.15 417.36 92.58 445.54 92.58 445.54 62.31 417.36 62.31 417.36 47.74 445.54 47.74 445.54 16.36 387.04 16.36 386.93 137.41"/><polygon points="355.37 16.36 326.06 16.36 326.06 137.41 382.42 137.41 382.42 106.03 355.37 106.03 355.37 16.36"/><rect x="137.84" y="16.36" width="30.43" height="121.04"/><path d="M245.59,75.88c3.95-13.56,4.06-27.13-.79-40.46C241,24.77,232,16.36,217.86,16.36H177.29V137.41h29.87V103.22l18.59,34.19h28.18s-16.12-40.46-19.39-48A22.38,22.38,0,0,0,245.59,75.88ZM217.86,59c-.67,3.7-3.38,4.49-12.39,4.49V46.63c9,0,11.83,1.45,12.39,4.48A22.44,22.44,0,0,1,217.86,59Z" /></svg>